<svg xmlns="http://www.w3.org/2000/svg" viewBox="0 0 414 742.76"><defs><style>.cls-1{fill:#bf4c41;}.cls-2{fill:#d7d3c7;}</style></defs><title>Fichier 18</title><g id="Calque_2" data-name="Calque 2"><g id="Calque_1-2" data-name="Calque 1"><path class="cls-1" d="M121.76,188.74a6.09,6.09,0,0,0-6.09-6.09H73.05v12.17h42.62A6.09,6.09,0,0,0,121.76,188.74Z"/><path class="cls-1" d="M97.4,340.94a24.36,24.36,0,1,0-24.35-24.35A24.36,24.36,0,0,0,97.4,340.94Z"/><path class="cls-1" d="M103.49,524.18H73v36.07h30.45a18,18,0,0,0,0-36.07Z"/><path class="cls-1" d="M0,0V742.76H194.82V0ZM98.94,48.71a48.73,48.73,0,0,1,47.17,36.53H120a24.35,24.35,0,1,0,0,24.35h26.1A48.71,48.71,0,1,1,98.94,48.71ZM48.7,158.29l67.19.27a30.21,30.21,0,0,1,14.73,56.59,60.63,60.63,0,0,1,15.49,40.56H121.76a36.53,36.53,0,0,0-36.53-36.53H73.05v36.53H48.7ZM97.4,267.88a48.55,48.55,0,0,1,24.36,6.53v-6.53h24.35v97.41H121.76v-6.53A48.7,48.7,0,1,1,97.4,267.88ZM74.06,657.53v36.53H49.71V596.65H74.06v36.53a48.72,48.72,0,0,0,47.17-36.53h24.88A73.08,73.08,0,0,1,74.06,657.53Zm29.43-72.69-54.8-.37V487.06H73v12.53h30.45a42.63,42.63,0,0,1,0,85.25Zm0-109.59-54.8-.37V377.47H73.05V390H103.5a42.62,42.62,0,0,1,0,85.24Z"/><path class="cls-1" d="M103.5,414.59H73.05v36.07H103.5a18,18,0,0,0,0-36.07Z"/><path class="cls-2" d="M219.18,0V596.65H414V0ZM389.65,572.29H243.53V24.35H389.65Z"/><path class="cls-2" d="M341,85.24c7.17-11.17,11.51-24.55,11.51-36.53H328.2c0,13.45-10.91,36.53-24.36,36.53h-11.6V48.71H267.88v97.41h24.36V109.59h48.7v36.53h24.35V85.24Z"/><path class="cls-2" d="M316.59,194.82a48.71,48.71,0,1,0,48.7,48.71A48.71,48.71,0,0,0,316.59,194.82Zm0,73.06a24.35,24.35,0,1,1,24.35-24.35A24.35,24.35,0,0,1,316.59,267.88Z"/><rect class="cls-2" x="280.06" y="158.29" width="73.06" height="24.35"/><path class="cls-2" d="M316.59,450.53a48.71,48.71,0,1,0,48.7,48.7A48.71,48.71,0,0,0,316.59,450.53Zm0,73.06a24.36,24.36,0,1,1,24.35-24.36A24.36,24.36,0,0,1,316.59,523.59Z"/><rect class="cls-2" x="280.06" y="414" width="73.06" height="24.35"/><path class="cls-2" d="M322.68,317H292.24V304.41H267.88v97.41l54.8.37a42.62,42.62,0,0,0,0-85.24Zm0,60.65H292.24V341.53h30.44a18,18,0,1,1,0,36.07Z"/></g></g></svg>